<svg width="600" height="601" viewBox="0 0 600 601" fill="none" xmlns="http://www.w3.org/2000/svg">
<path d="M0.100969 295.103C0.461969 221.763 30.071 150.991 79.31 96.871C132.815 38.064 206.415 3.727 285.998 0.371002C288.348 0.274002 291.037 0.380001 293.417 0.414001C290.965 74.465 241.664 117.749 170.18 124.987C163.326 125.681 154.433 126.104 147.84 127.457C183.845 129.433 219.512 136.164 248.455 159.265C277.103 182.131 291.965 213.361 296.203 249.178C297.4 259.295 297.336 269.041 298.385 278.457L298.452 279.029C299.821 271.881 300.67 261.294 301.401 254.041C307.899 189.501 348.615 141.239 413.749 131.114C424.533 129.437 438.6 128.459 449.136 126.479L449.778 126.353C441.712 125.18 432.66 124.839 424.42 123.915C354.897 116.123 306.366 72.822 304.512 0C450.31 1.671 579.054 117.388 596.437 262.159C597.76 273.173 599.377 285.385 598.947 296.472C567.146 295.509 543.196 286.083 518.599 265.984C482.635 236.596 476.224 193.551 472.424 150.186C471.437 156.921 471.165 164.131 470.267 171.099C466.515 200.19 458.519 228.111 439.496 251.178C418.463 276.681 387.015 290.929 355.001 296.761C344.836 298.613 334.594 299.296 324.333 300.293C363.05 302.589 395.551 309.58 426.39 335.716C458.034 362.535 469.293 406.156 471.903 446.37L472.342 446.7C472.851 444.976 472.638 441.715 472.827 439.72C476.111 405.127 484.942 369.805 509.032 343.456C523.702 327.409 547.314 314.018 568.627 308.554C578.538 306.013 588.479 305.335 598.763 304.917C599.21 452.657 484.27 580.239 338.095 598.486C327.597 599.796 314.502 601.136 303.951 600.57L303.462 599.786C308.003 529.805 351.441 486.845 419.045 476.828C427.745 475.539 440.006 474.571 448.186 472.765L449.074 472.563C415.776 470.375 386.102 466.442 357.799 447.518C321.121 422.994 304.746 382.998 300.62 340.554C300.127 335.476 299.557 328.923 298.606 323.984L298.513 323.521C296.225 362.51 290.97 395.531 264.556 426.388C230.746 465.885 192.41 469.746 145.302 473.9C189.013 477.094 228.707 482.089 260.803 516.062C284.565 541.215 291.479 567.723 295.59 600.691L293.31 600.7C275.49 600.66 257.589 598.22 240.139 594.726C104.364 567.544 -0.52403 445.58 0.00196965 305.571C21.702 305.314 49.427 314.439 67.126 326.296C102.657 350.098 118.466 382.647 123.76 423.986C124.672 431.101 125.661 448.502 126.586 452.991C126.48 453.205 130.821 418.014 131.324 414.988C141.926 351.203 187.684 306.223 252.832 302.125C255.095 301.982 277.909 299.895 277.933 299.878C239.803 297.691 204.629 293.242 174.686 267.301C137.432 235.027 130.56 194.188 126.833 148.439C125.538 158.264 124.679 168.701 123.509 178.575C115.331 247.57 69.443 290.136 0.100969 295.103Z" fill="url(#paint0_linear_297_5)"/>
<defs>
<linearGradient id="paint0_linear_297_5" x1="81.5" y1="98" x2="481.5" y2="548" gradientUnits="userSpaceOnUse">
<stop/>
<stop offset="0.392156" stop-color="#181616"/>
<stop offset="1" stop-color="#3D3939"/>
</linearGradient>
</defs>
</svg>
